<?xml version="1.0" encoding="UTF-8" standalone="no"?>
<svg width="120px" height="54px" viewBox="0 0 120 54" version="1.1" xmlns="http://www.w3.org/2000/svg" xmlns:xlink="http://www.w3.org/1999/xlink">
    <!-- Generator: Sketch 3.8.3 (29802) - http://www.bohemiancoding.com/sketch -->
    <title>Foursquare-logo</title>
    <desc>Created with Sketch.</desc>
    <defs></defs>
    <g id="Sushi-Bar" stroke="none" stroke-width="1" fill="none" fill-rule="evenodd">
        <g id="Coffee-Shop" transform="translate(-1101.000000, -6485.000000)">
            <g id="Group-29" transform="translate(80.000000, 6135.000000)">
                <g id="Group-27-Copy" transform="translate(882.000000, 273.000000)">
                    <g id="Foursquare-logo" transform="translate(139.000000, 77.000000)">
                        <path d="M34.1580173,40.0419157 C34.1580173,40.0419157 31.4567053,40.0394477 31.2726222,40.0394477 C31.072414,40.0394477 30.8657843,40.2524164 30.8657843,40.4533356 L30.8657843,47.8519269 C30.8657843,49.0623785 30.438255,49.7062203 29.3391791,49.7062203 C28.2389617,49.7062203 27.8157133,49.1108662 27.8157133,47.9004147 L27.8157133,40.4440446 C27.8157133,40.2464643 27.5805436,40.0419157 27.4090182,40.0419157 L24.5217679,40.0419157 C24.3041504,40.0419157 24.1617357,40.1820075 24.1617357,40.3955568 L24.1617357,48.5867921 C24.1617357,51.1193332 25.9663206,53.1558185 29.3032187,53.1558185 C32.67622,53.1558185 34.5167653,51.1193332 34.5167653,48.5867921 L34.5167653,40.3955568 C34.5167653,40.2047997 34.3540872,40.0419157 34.1580173,40.0419157" id="Fill-1" fill="#0732A2"></path>
                        <path d="M54.9007553,45.3658331 L52.787307,44.6406801 C52.164012,44.4231772 52.0891701,44.0790125 52.0891701,43.87942 C52.0891701,43.5540253 52.4016169,43.2286306 53.0262199,43.2286306 C53.7053193,43.2286306 54.6821879,43.4134651 55.6369672,44.1397643 C55.7712466,44.2429278 55.960168,44.2274533 56.064656,44.0949169 L57.705365,42.0528541 C57.8101437,41.9208908 57.7963379,41.7220147 57.6661275,41.6135498 C56.2711615,40.445797 54.5543027,40.0400209 52.970706,40.0394477 C49.9200627,40.0394477 48.1026396,41.9048432 48.1026396,43.9341539 C48.1026396,45.5278856 49.0385267,46.9955288 51.0432726,47.6650881 L52.9162095,48.2999731 C53.8346578,48.6074574 53.9825977,48.8437303 53.9825977,49.2238589 C53.9825977,49.5680236 53.6143465,49.9657759 52.8795878,49.9657759 C51.8421191,49.9657759 50.6235766,49.3510938 49.8032221,48.6809614 C49.6715585,48.5730696 49.4880142,48.5892605 49.3849794,48.7219402 L47.7006731,50.9027005 C47.5973477,51.0350936 47.6139147,51.2381249 47.7412186,51.347163 C48.9583078,52.387251 50.7661396,53.1558185 53.0452573,53.1558185 C55.9111937,53.1558185 57.9881657,51.52469 57.9881657,49.0620929 C57.9881657,47.3759439 56.9219228,46.0528729 54.9007553,45.3658331" id="Fill-2" fill="#0732A2"></path>
                        <path d="M8.56478686,40.0394477 L0.389077435,40.0394477 C0.195775193,40.0394477 0,40.2584081 0,40.4329377 L0,52.1060106 C0,52.2980348 0.171320467,52.4654832 0.34662513,52.4654832 L3.21181225,52.4654832 C3.38381964,52.4654832 3.52381608,52.2784575 3.52381608,52.1060106 L3.52381608,48.1490344 L7.10478478,48.1490344 C7.27679217,48.1490344 7.43038983,48.041984 7.48094792,47.8394075 L7.99339807,45.3014388 C8.02664551,45.1500965 7.93624545,44.9833423 7.74047026,44.9833423 L3.52381608,44.9833423 L3.52381608,43.185979 L8.10797808,43.185979 C8.28149672,43.185979 8.44965731,43.0476883 8.48565247,42.8777406 L8.96828984,40.4548754 C9.01197862,40.2432739 8.81386786,40.0394477 8.56478686,40.0394477" id="Fill-3" fill="#0732A2"></path>
                        <path d="M118.531182,43.1953717 C118.703986,43.1953717 118.872642,43.0581998 118.909968,42.8889149 L119.420084,40.473941 C119.464322,40.2642381 119.317784,40.0611793 119.118715,40.0611793 C119.118715,40.0611793 111.084037,40.0394477 110.847641,40.0394477 C110.651336,40.0394477 110.453649,40.4578845 110.453649,40.6311835 L110.453649,52.0711312 C110.453649,52.2683764 110.696956,52.4654832 110.860083,52.4654832 L118.415058,52.4654832 C118.589244,52.4654832 118.757901,52.3284497 118.793844,52.158888 L119.30396,49.7421146 C119.34958,49.5325502 119.214102,49.3289377 118.925174,49.3289377 L113.99958,49.3289377 L113.99958,47.7151255 L117.599425,47.7151255 C117.772229,47.7151255 117.942267,47.5765694 117.976828,47.4072845 L118.515975,44.9190876 C118.549154,44.7690428 118.470355,44.6028031 118.261608,44.6028031 L113.99958,44.6028031 L113.99958,43.1953717 L118.531182,43.1953717" id="Fill-4" fill="#0732A2"></path>
                        <path d="M89.6178603,46.9418471 L90.7607965,43.247886 L91.9062425,46.9418471 L89.6178603,46.9418471 L89.6178603,46.9418471 Z M93.0844554,40.3203505 C93.0374664,40.1651548 92.8258063,40.0394477 92.6643424,40.0394477 L88.8809543,40.0394477 C88.7179566,40.0394477 88.5181484,40.1651548 88.4722748,40.3203505 L84.9239716,52.1651983 C84.8758671,52.3192864 84.968172,52.4654832 85.1322852,52.4654832 L88.2977041,52.4654832 C88.4607018,52.4654832 88.6287192,52.3192864 88.6729196,52.1640908 L89.1747407,50.295513 L92.3521508,50.295513 L92.8981723,52.1651983 C92.9451614,52.3192864 93.115828,52.4654832 93.2784074,52.4654832 L96.4259788,52.4654832 C96.5874428,52.4654832 96.6825364,52.3192864 96.6344318,52.1651983 L93.0844554,40.3203505 L93.0844554,40.3203505 Z" id="Fill-5" fill="#0732A2"></path>
                        <path d="M103.561911,45.3635862 L101.661931,45.3635862 L101.661931,43.1936159 L103.479161,43.1936159 C104.515797,43.1936159 105.009176,43.6852304 105.009176,44.297291 C105.009176,44.9087979 104.598688,45.3635862 103.561911,45.3635862 L103.561911,45.3635862 Z M106.387862,47.7334695 C107.908101,46.9984706 108.694788,45.8455095 108.694788,44.1315736 C108.694788,41.9642338 106.907172,40.0394477 103.883698,40.0394477 L98.4314423,40.0394477 C98.2527657,40.0394477 98.0276134,40.2188711 98.0276134,40.3941411 L98.0276134,52.0710565 C98.0276134,52.2463265 98.2254187,52.4654832 98.4039536,52.4654832 L101.270713,52.4654832 C101.449673,52.4654832 101.661931,52.2463265 101.661931,52.0710565 L101.661931,48.3228253 L102.873276,48.3228253 L105.018245,52.1866571 C105.102978,52.341299 105.317503,52.4654832 105.49618,52.4654832 L108.872189,52.4654832 C109.051999,52.4654832 109.124972,52.3426835 109.033437,52.1912258 L106.387862,47.7334695 L106.387862,47.7334695 Z" id="Fill-6" fill="#0732A2"></path>
                        <path d="M65.1611169,48.8114458 C63.5540722,48.8114458 62.4660558,47.4176628 62.4660558,45.6998475 C62.4660558,43.9807837 63.556709,42.5882492 65.1611169,42.5882492 C66.7644145,42.5882492 67.8552065,43.9807837 67.8552065,45.6998475 C67.8552065,47.4176628 66.7671901,48.8114458 65.1611169,48.8114458 L65.1611169,48.8114458 Z M71.5633441,50.2931724 C71.1717137,50.4404851 70.4456293,50.6355148 69.5827101,50.4409012 L69.5789631,50.4404851 C69.7035854,50.3307635 69.8241832,50.2179903 69.9396461,50.0986976 C71.5958181,48.3414879 72.0654415,45.7114993 71.2548415,43.4711541 C70.4142656,41.1486911 68.1950729,39.5715302 65.70457,39.3705358 C63.2079608,39.1696802 60.681237,40.3922919 59.476231,42.5700778 C58.2154365,44.846627 58.4514972,47.8507231 60.167621,49.8445763 C61.6499047,51.5662756 63.9781765,52.2845288 66.1587891,51.9806097 C66.1884875,52.0097394 66.2211002,52.040811 66.2557946,52.0732697 C67.4635761,53.2127927 69.4271404,53.8461538 71.1019086,53.8461538 L71.7931598,50.4839021 C71.8085642,50.3618351 71.7190526,50.2347745 71.5633441,50.2931724 L71.5633441,50.2931724 Z" id="Fill-7" fill="#0732A2"></path>
                        <path d="M16.2233839,49.1206216 C14.5989086,49.1206216 13.4978597,47.6812976 13.4978597,45.9073538 C13.4978597,44.1321207 14.6015763,42.6940859 16.2233839,42.6940859 C17.8454723,42.6940859 18.9489081,44.1321207 18.9489081,45.9073538 C18.9489081,47.6812976 17.8479996,49.1206216 16.2233839,49.1206216 L16.2233839,49.1206216 Z M16.7733467,39.3712358 C14.24846,39.1638173 11.6908591,40.4263772 10.4717304,42.6753209 C9.19615924,45.0262549 9.435127,48.128508 11.1712236,50.187509 C13.6423355,53.1182981 18.4358715,53.2374778 21.0579179,50.4499335 C22.7336407,48.6358811 23.2086277,45.9193863 22.3885274,43.6058392 C21.5380999,41.2074912 19.2928981,39.5787976 16.7733467,39.3712358 L16.7733467,39.3712358 Z" id="Fill-8" fill="#0732A2"></path>
                        <path d="M83.8620167,40.0419157 C83.8620167,40.0419157 81.1607046,40.0394477 80.9766215,40.0394477 C80.7764133,40.0394477 80.5760625,40.2524164 80.5760625,40.4533356 L80.5760625,47.9004147 C80.5760625,49.1108662 80.142397,49.7062203 79.0431785,49.7062203 C77.942961,49.7062203 77.5197127,49.1108662 77.5197127,47.9004147 L77.5197127,40.4440446 C77.5197127,40.2464643 77.2786923,40.0419157 77.1131602,40.0419157 L74.2851305,40.0419157 C74.1224524,40.0419157 73.8658777,40.3042431 73.8658777,40.4533356 L73.8658777,48.5867921 C73.8658777,51.1193332 75.6701772,53.1558185 79.007218,53.1558185 C82.380362,53.1558185 84.2209073,51.1193332 84.2209073,48.5867921 L84.2209073,40.4533356 C84.2209073,40.2625785 84.0580865,40.0419157 83.8620167,40.0419157" id="Fill-9" fill="#0732A2"></path>
                        <path d="M42.1219974,45.3635862 L40.2221841,45.3635862 L40.2221841,43.1936159 L42.0392489,43.1936159 C43.076013,43.1936159 43.5693864,43.6852304 43.5693864,44.297291 C43.5693864,44.9087979 43.1587615,45.3635862 42.1219974,45.3635862 L42.1219974,45.3635862 Z M44.9479128,47.7334695 C46.4681318,46.9984706 47.2548086,45.8455095 47.2548086,44.1315736 C47.2548086,41.9642338 45.4672159,40.0394477 42.4437811,40.0394477 L36.9915949,40.0394477 C36.8129206,40.0394477 36.5877712,40.2563894 36.5877712,40.4317978 L36.5877712,52.0710565 C36.5877712,52.2463265 36.785574,52.4654832 36.9642482,52.4654832 L39.8308294,52.4654832 C40.0099288,52.4654832 40.2221841,52.2463265 40.2221841,52.0710565 L40.2221841,48.3228253 L41.4335134,48.3228253 L43.578313,52.1866571 C43.6631868,52.341299 43.8777093,52.4654832 44.0563835,52.4654832 L47.4323493,52.4654832 C47.6121571,52.4654832 47.6851288,52.3426835 47.5935954,52.1912258 L44.9479128,47.7334695 L44.9479128,47.7334695 Z" id="Fill-10" fill="#0732A2"></path>
                        <path d="M67.3096663,4.58408163 L66.5975427,8.28900886 C66.5127324,8.68962546 66.1179405,9.06836202 65.6496464,9.06836202 C65.1817764,9.06836202 59.0430669,9.05805723 59.0430669,9.05805723 C58.2995634,9.05805723 57.6575496,9.6171983 57.6575496,10.3588613 L57.6575496,11.1667291 C57.6575496,11.9088156 58.2656393,12.5152458 59.0091428,12.5152458 L64.6143956,12.5152458 C65.1393712,12.5152458 65.5819395,13.0097349 65.4685765,13.5694406 C65.354648,14.1299933 64.7700225,17.0881757 64.7059907,17.3946375 C64.6419589,17.7013817 64.3134604,18.1162556 63.7874954,18.1162556 L59.2119807,18.1162556 C58.2623882,18.1464642 58.057006,18.1528165 57.4992371,18.8449318 C56.9414681,19.5371882 51.928191,25.549684 51.928191,25.549684 C51.8774462,25.6078426 51.8279736,25.5910444 51.8279736,25.5273805 L51.8279736,4.52902861 C51.8279736,4.05543146 52.2401515,3.49967826 52.8587012,3.49967826 L66.4684897,3.49967826 C66.9692944,3.49967826 67.4375885,3.96974637 67.3096663,4.58408163 L67.3096663,4.58408163 Z M67.9070134,19.1125741 C68.0965644,18.3479018 70.2202138,7.49017539 70.9292278,4.04569131 L67.9070134,19.1125741 Z M68.3112757,0.000141161595 C68.3112757,0.000141161595 53.6919622,0 51.3521879,0 C49.0117068,0 48.3234714,1.75774418 48.3234714,2.86459225 L48.3234714,29.7746506 C48.3234714,31.0215309 48.9946034,31.4838352 49.3713024,31.6362897 C49.7485668,31.7890265 50.7890476,31.9179071 51.4125445,31.1993946 C51.4125445,31.1993946 59.530726,21.8910578 59.6604857,21.7460849 C59.7901041,21.6018177 59.9327267,21.6006884 60.0093387,21.6006884 C60.0855266,21.6006884 63.4749695,21.6013942 65.1530822,21.6013942 C67.3298794,21.6013942 67.6798632,20.0256073 67.9070134,19.1125741 C68.0965644,18.3479018 70.2202138,7.49017539 70.9292278,4.04569131 C71.4706001,1.41712125 70.8017296,0.000141161595 68.3112757,0.000141161595 L68.3112757,0.000141161595 Z" id="Fill-11" fill="#F94877"></path>
                    </g>
                </g>
            </g>
        </g>
    </g>
</svg>