<?xml version="1.0" encoding="UTF-8" standalone="no"?>
<svg width="57px" height="7px" viewBox="0 0 57 7" version="1.1" xmlns="http://www.w3.org/2000/svg" xmlns:xlink="http://www.w3.org/1999/xlink">
    <!-- Generator: Sketch 3.8.3 (29802) - http://www.bohemiancoding.com/sketch -->
    <title>waves</title>
    <desc>Created with Sketch.</desc>
    <defs></defs>
    <g id="Coffee-Shop" stroke="none" stroke-width="1" fill="none" fill-rule="evenodd">
        <path d="M19,7 C15,7 12.5,1.1 9.5,1.1 C6.5,1.1 4,7 0,7 L0,0 L19,0 L19,7 Z M38,7 C34,7 31.5,1.1 28.5,1.1 C25.5,1.1 23,7 19,7 L19,0 L38,0 L38,7 Z M57,7 C53,7 50.5,1.1 47.5,1.1 C44.5,1.1 42,7 38,7 L38,0 L57,0 L57,7 Z" id="waves" fill="#FFFFFF"></path>
    </g>
</svg>