<?xml version="1.0" encoding="UTF-8" standalone="no"?>
<svg width="110px" height="69px" viewBox="0 0 110 69" version="1.1" xmlns="http://www.w3.org/2000/svg" xmlns:xlink="http://www.w3.org/1999/xlink">
    <!-- Generator: Sketch 3.8.3 (29802) - http://www.bohemiancoding.com/sketch -->
    <title>sign</title>
    <desc>Created with Sketch.</desc>
    <defs></defs>
    <g id="Gourmet-Light" stroke="none" stroke-width="1" fill="none" fill-rule="evenodd">
        <g transform="translate(-666.000000, -1552.000000)" id="Group-6-Copy" fill="#000000">
            <g transform="translate(206.000000, 1040.000000)">
                <g id="Group-19" transform="translate(61.000000, 375.000000)">
                    <path d="M452.318392,171.650532 C452.15869,171.528077 451.998987,171.403473 451.837155,171.281017 C451.632736,171.424956 451.443223,171.6269 451.21751,171.699944 C450.668133,171.880405 450.099592,172.000713 449.53744,172.142503 C449.556604,171.519483 449.50337,170.881425 449.618356,170.27774 C449.690754,169.908224 450.025065,169.590269 450.24226,169.250831 C452.548364,165.645908 454.963066,162.107583 457.113726,158.410281 C458.318947,156.33498 459.042932,153.744076 457.516176,151.675219 C455.934057,149.533319 453.231891,149.477462 450.870423,150.132708 C447.178101,151.153172 443.436805,152.212306 439.968066,153.819268 C429.553335,158.635858 420.205416,165.130305 411.824229,173.100665 C405.80238,178.828153 401.324323,185.335491 400.099937,193.875162 C399.246061,199.832523 402.987358,203.070079 407.936006,203.622204 C416.285252,204.552438 423.442053,201.30414 430.104841,196.710978 C437.478837,191.627993 443.257938,184.903673 448.340736,177.521959 C449.682237,175.575559 450.993926,173.607675 452.318392,171.648384 L452.318392,171.650532 Z M483.339004,159.948496 C478.481919,161.340624 475.232506,164.745751 472.164088,168.40868 C471.929858,168.299114 471.693498,168.1874 471.459268,168.077834 C471.65517,167.360287 471.680722,166.515987 472.083172,165.950973 C473.286265,164.264522 474.67887,162.72201 475.905385,161.054894 C476.346164,160.457654 476.52929,159.662767 476.82953,158.958109 C476.618723,158.779797 476.412175,158.599336 476.201367,158.421023 C474.197633,160.244968 472.087431,161.961496 470.215718,163.918638 C468.150232,166.075577 466.336012,168.477427 464.345054,170.711705 C463.882982,171.229457 463.15048,171.495851 462.539352,171.878257 C462.637303,171.119891 462.496764,170.196103 462.873662,169.635385 C465.041357,166.42146 467.343203,163.302063 469.572649,160.133254 C470.098603,159.38563 470.520217,158.560666 470.988678,157.772223 C470.877951,157.617542 470.767224,157.46501 470.654368,157.310329 C469.647177,157.883937 468.642116,158.4511 467.637055,159.024708 C460.987043,162.812241 456.355671,168.567657 452.239606,174.954687 C446.432823,183.96055 439.797717,192.220937 430.871413,198.320088 C425.562902,201.948643 419.875364,204.530954 413.557533,205.521341 C410.357095,206.021906 407.154528,205.742621 404.205356,204.264559 C400.02328,202.167775 398.481618,198.360907 399.150239,193.656031 C400.52581,184.01211 406.128174,177.060065 412.848454,170.864238 C421.583116,162.816537 431.390978,156.365057 442.191125,151.565654 C446.390236,149.70089 450.71285,148.141192 455.480502,148.777102 C458.346629,149.157359 460.069286,150.86959 460.182143,153.823565 C460.32694,157.63258 458.54466,160.698269 456.496209,163.658688 C455.795648,164.672707 455.131285,165.712506 454.449888,166.739415 C454.613849,166.881206 454.77994,167.025145 454.946031,167.164788 C455.644463,166.464427 456.447234,165.841407 457.026422,165.048668 C459.786081,161.265432 462.488247,157.439229 465.203189,153.62162 C465.356504,153.406786 465.618416,153.114611 465.57157,152.925556 C464.947665,150.433476 467.147301,149.892093 468.365298,148.697613 C471.82126,145.311821 475.253799,141.898101 478.8141,138.626171 C479.601966,137.902179 480.332338,136.305959 481.933622,137.337164 C481.341658,138.263101 480.934949,139.429652 480.127919,140.076304 C473.626963,145.288189 468.356781,151.634401 463.572094,158.440358 C463.382581,158.71105 463.169644,158.966703 463.001424,159.248136 C462.899215,159.417855 462.858757,159.626245 462.607491,160.343792 C464.08953,159.430745 465.203189,158.721791 466.338142,158.049359 C467.928778,157.101939 469.500251,156.109404 471.152639,155.286588 C471.729698,155.000858 472.521822,155.16628 473.215995,155.125462 C473.177667,155.812932 473.245807,156.526183 473.073328,157.177131 C472.881685,157.901124 472.474976,158.567111 471.976704,159.667063 C473.586505,158.728236 474.729975,157.954832 475.95862,157.368334 C478.111409,156.341425 478.718279,156.781836 478.637363,159.164351 C478.626716,159.493047 478.605422,159.819596 478.584128,160.279342 C480.300398,159.611206 481.861224,158.949516 483.458248,158.393095 C486.441491,157.355444 486.801354,157.63258 486.539442,161.134383 C488.12582,160.025837 489.477968,159.0999 490.81308,158.148183 C491.739355,157.488641 492.510186,156.530479 493.396002,158.37376 C493.953896,159.540311 495.929948,158.966703 497.463092,157.411301 C500.442076,154.388579 503.433836,151.383045 506.451148,148.405438 C507.043112,147.823237 507.782002,147.397864 508.454882,146.899448 C508.635878,147.017607 508.819004,147.135766 509,147.253925 C508.759382,147.898429 508.655043,148.648201 508.26111,149.172397 C505.482286,152.852513 502.194545,155.986948 498.776911,159.080565 C494.907852,162.580219 491.551971,166.717932 488.242935,170.806233 C482.736393,177.607893 477.464082,184.602905 472.038456,191.473313 C471.599806,192.029734 470.74593,192.24242 470.083697,192.616232 C470.192295,191.810603 470.100732,190.899704 470.441431,190.216531 C472.472847,186.158307 475.298516,182.738141 478.671432,179.745497 C480.000157,178.563907 481.16705,177.186818 482.340331,175.835509 C482.649089,175.481032 482.702323,174.900978 482.872673,174.426194 C482.402083,174.258623 481.918716,173.908443 481.467291,173.95141 C476.833789,174.376782 472.210934,174.933204 467.575304,175.311312 C464.602708,175.551927 461.613077,175.586301 458.629835,175.627119 C458.120916,175.633564 457.607739,175.21034 456.52815,174.737704 C457.70356,174.333815 458.280619,173.994377 458.876841,173.95141 C467.108972,173.35417 475.347491,172.832122 483.575364,172.183322 C484.437757,172.114575 485.476888,171.579637 486.043299,170.91365 C488.251453,168.322746 490.336102,165.620128 492.378165,162.887433 C492.76571,162.367533 492.748675,161.52753 492.916895,160.835763 C492.007655,160.625225 490.989818,160.04732 490.20834,160.285787 C488.917944,160.678934 487.829838,161.703694 486.571382,162.270858 C483.200595,163.789738 483.077092,163.68232 483.341133,159.948496 L483.339004,159.948496 Z" id="sign"></path>
                </g>
            </g>
        </g>
    </g>
</svg>