<?xml version="1.0" encoding="utf-8"?>
<!-- Generator: Adobe Illustrator 18.0.0, SVG Export Plug-In . SVG Version: 6.00 Build 0)  -->
<!DOCTYPE svg PUBLIC "-//W3C//DTD SVG 1.1//EN" "http://www.w3.org/Graphics/SVG/1.1/DTD/svg11.dtd">
<svg version="1.1" id="Layer_1" xmlns="http://www.w3.org/2000/svg" xmlns:xlink="http://www.w3.org/1999/xlink" x="0px" y="0px"
	 viewBox="0 0 339 361.1" enable-background="new 0 0 339 361.1" xml:space="preserve">
<g>
	<g>
		<g>
			<path fill-rule="evenodd" clip-rule="evenodd" fill="#2B1B0E" d="M235,122.6c-4.7-2.8-10.9-4.1-16.2-5.3
				c-6.5-1.4-13-2.6-19.5-3.5c-13.5-1.8-27.1-2.6-40.7-2.3c-26,0.5-51.5,4.7-75.6,14.7c0,0-0.1,0.1,0,0.1c11.3-4.4,23.4-7,35.3-9
				c12.9-2.1,25.9-3.2,39-3.3c13.4-0.2,26.7,0.6,40,2.4c6.3,0.8,12.5,1.9,18.7,3.3c6,1.3,12,3.1,18.1,3.9
				C234.4,123.6,235.5,122.9,235,122.6z"/>
			<path fill-rule="evenodd" clip-rule="evenodd" fill="#2B1B0E" d="M115.1,232.3c-2.5-1.5-5-2.8-7.2-4.7c-2.6-2.2-5-4.8-7.2-7.4
				c-4.7-5.7-8.3-12.3-11.8-18.9c-3.5-6.6-6.6-13.3-9.9-19.9c-2.4-4.8-5-9.5-8.4-13.6c-0.8-0.3-1.7-0.6-2.5-1
				c6.6,12,11.7,24.9,17.8,37.1c3.3,6.6,7.1,13,11.8,18.7c4,4.8,9.6,9.7,15.9,10.9C114.3,233.6,115.8,232.7,115.1,232.3z"/>
			<path fill-rule="evenodd" clip-rule="evenodd" fill="#2B1B0E" d="M224.3,232.3c2.5-1.5,5-2.8,7.2-4.7c2.6-2.2,5-4.8,7.2-7.4
				c4.7-5.7,8.3-12.3,11.8-18.9c3.5-6.6,6.6-13.3,9.9-19.9c3-5.9,6.2-11.8,10.9-16.5c0.2-0.2,0.9,0.2,0.7,0.4
				c-7,12.4-12.2,25.8-18.6,38.6c-3.3,6.6-7.1,13-11.8,18.7c-4,4.8-9.6,9.7-15.9,10.9C225.1,233.6,223.6,232.7,224.3,232.3z"/>
			<path fill-rule="evenodd" clip-rule="evenodd" fill="#2B1B0E" d="M207.5,241.1c-14.5,7.1-30.4,8.8-46.3,7.2
				c-7.6-0.8-15.1-2.3-22.5-4c-1.8-0.4-16.9-5.2-17.2-2.9c0,0.2,0,0.4-0.1,0.5c0,0.2-0.1,0.5,0.2,0.6c3.1,1.5,6.8,2.2,10.2,3.2
				c3.7,1,7.3,2,11.1,2.8c7.3,1.6,14.8,2.8,22.3,3.2c14.7,0.9,29.3-1.6,42.5-8.1c0.8-0.4,2-1.2,2-2.2
				C209.6,240.6,208.1,240.9,207.5,241.1z"/>
			<g>
				<path fill-rule="evenodd" clip-rule="evenodd" fill="#2B1B0E" d="M109.9,171c2.1,0.3,4.1,0.8,6.1,1.4c-2.3-2.8-4.9-5.3-7.4-7.9
					c-1.5-1.6-3-3.2-4.6-4.7c-1.1-1.1-2-2.4-3.2-3.2c-1,0.5-2,1.1-3,1.6c0.3,0.7,0.8,1.3,1.3,1.9c0.1,0.3,0.2,0.6,0.3,0.9
					c0,0.1,0.3,0,0.3-0.1c0-0.1,0-0.2,0-0.3c0.4,0.4,0.8,0.8,1.2,1.2c1.7,1.8,3.4,3.7,5.1,5.5C107.3,168.5,108.6,169.8,109.9,171z"
					/>
				<path fill-rule="evenodd" clip-rule="evenodd" fill="#2B1B0E" d="M123.7,174.4c0.7,0.1,1.3,0.2,2,0.3c0.6,0,1.3,0.1,1.9,0.1
					c-2.9-3.9-6.2-7.5-9.3-11.3c-3.2-3.9-6.4-7.8-10.5-10.7c-0.1-0.1-0.2-0.1-0.3-0.1c-0.5,0.3-1,0.6-1.5,0.9
					c-0.1,0.1-0.1,0.3,0,0.4c3.5,3.9,6.7,7.9,10,11.9C118.4,168.9,120.8,171.9,123.7,174.4z"/>
				<path fill-rule="evenodd" clip-rule="evenodd" fill="#2B1B0E" d="M138.3,174.3c-2.3-4.8-6.5-8.6-10.2-12.4
					c-3.8-3.8-7.7-8.1-12.4-10.8c-0.2-0.1-0.6,0.2-0.5,0.4c2.4,4.6,7,8.1,10.7,11.8c3.8,3.9,7.3,8.2,11.3,11.8
					C137.5,175.4,138.5,174.7,138.3,174.3z"/>
				<path fill-rule="evenodd" clip-rule="evenodd" fill="#2B1B0E" d="M128.2,153c1,1.2,2.4,2.1,3.6,3.1c2.6,2.3,5.1,4.7,7.7,7.2
					c4.7,4.5,9.2,9.4,14.5,13.3c0.9,0,1.9,0,2.8,0c-4.3-5.3-9.5-9.9-14.4-14.5c-2.6-2.4-5.1-4.8-7.9-7.1c-1.4-1.2-2.9-2.3-4.4-3.4
					c-1.5-1.1-3.5-1.5-5.1-2.5c-0.1,0-0.2,0.1-0.1,0.1C126.2,150.3,127.1,151.8,128.2,153z"/>
				<path fill-rule="evenodd" clip-rule="evenodd" fill="#2B1B0E" d="M143.9,155.2c3.1,2.5,5.9,5.3,8.7,8.2
					c4.2,4.3,8.1,9.3,12.8,13.1c0.3,0,0.5,0,0.8,0c0.3-0.2,0.8-0.3,1.3-0.3c0.3,0,0.7,0,1,0c-3.8-5.6-8.8-10.5-13.5-15.3
					c-4.9-5-10.7-11.1-17.3-13.6c-0.7-0.3-2.8,0.8-1.9,1.6C138.2,151.2,141.2,153,143.9,155.2z"/>
				<path fill-rule="evenodd" clip-rule="evenodd" fill="#2B1B0E" d="M175.1,170.6c-3.4-3.4-6.7-7-10-10.5c-3-3.2-6-6.2-9.3-9.1
					c-2.3-2.1-4.9-4.2-7.9-4.9c-0.2,0-0.5,0-0.7,0c2.4,2.2,5,4.3,7.3,6.6c3.2,3.2,6.2,6.6,9.3,9.9c3.2,3.6,6.4,7.1,9.7,10.6
					c0.9,0.9,1.8,1.9,2.8,2.9c1.4,0,2.8-0.1,4.3-0.1c0,0-0.1-0.1-0.1-0.1C178.6,174.2,176.9,172.4,175.1,170.6z"/>
				<path fill-rule="evenodd" clip-rule="evenodd" fill="#2B1B0E" d="M177.4,158.6c-4.4-4.1-8.6-8.6-13.1-12.7
					c-0.9,0-1.8-0.1-2.7-0.1c3.6,5.2,8.4,9.5,12.9,13.9c4.9,4.7,9.8,9.7,15.6,13.3c0.3,0.2,1.5-0.4,1.2-0.8
					C187.4,167.1,182.1,162.9,177.4,158.6z"/>
				<path fill-rule="evenodd" clip-rule="evenodd" fill="#2B1B0E" d="M192.5,159.4c-2.7-3-5.4-5.9-8.3-8.6c-1.7-1.6-3.5-3.3-5.4-4.7
					c-1.4,0-2.8,0-4.2,0c1.7,2.6,4.6,4.7,6.7,6.8c2.9,3,5.7,6.1,8.5,9.3c3.5,4.1,6.9,8.7,10.7,12.7c1.5-0.1,3.1-0.2,4.6-0.4
					c-1.2-1.6-2.5-3.2-3.8-4.7C198.5,166.2,195.5,162.8,192.5,159.4z"/>
				<path fill-rule="evenodd" clip-rule="evenodd" fill="#2B1B0E" d="M203,156.6c-2-2.2-4.2-4.3-6.5-6.2c-1.6-1.3-3.2-2.3-4.9-3.3
					c-0.7-0.2-1.5-0.3-2.2-0.5c1.7,1.4,3.2,3.1,4.8,4.6c2.5,2.3,4.9,4.8,7.2,7.4c4,4.5,6.9,9.9,10.8,14.4c0.4,0.5,1.7-0.3,1.5-0.9
					C211.7,166.3,207,161,203,156.6z"/>
				<path fill-rule="evenodd" clip-rule="evenodd" fill="#2B1B0E" d="M207.7,151.3c0.7-0.9,0.7,0.5,1.1,1c0.5,0.7,1.2,1.3,1.8,2
					c1.6,1.9,3.1,4,4.6,6c2.7,3.7,5,7.9,8.2,11.2c0.7-0.2,1.4-0.4,2.2-0.6c0,0,0,0,0,0c-1.8-5.6-6-10.7-9.5-15.2
					c-1.3-1.7-3.2-4.2-5.3-4.9c-0.8-0.3-2.4-0.3-3,0.5C207.5,151.4,207.6,151.4,207.7,151.3z"/>
				<path fill-rule="evenodd" clip-rule="evenodd" fill="#2B1B0E" d="M222.7,157.5c1.3,1.4,2.6,3,3.8,4.5c1.7,2.1,3.6,5,5.8,6.9
					c1.2-0.4,2.3-0.7,3.5-1.1c-1.7-3.2-4.7-6.1-7-8.8c-1.2-1.4-2.4-2.6-3.7-3.8c-0.5-0.5-1.1-0.7-1.7-1c-0.7-0.3-1.2,0.4-1.9,0.3
					c-0.1,0-0.4,0.1-0.2,0.2c-0.3-0.2,0.1,1.3,0.1,1.4C221.8,156.5,222.2,157,222.7,157.5z"/>
			</g>
			<path fill-rule="evenodd" clip-rule="evenodd" fill="#2B1B0E" d="M258.4,164.6c-4.1,1.5-7.9,4.2-12,5.8c-1.2,0.5-2.5,1-3.8,1.4
				c0.1-0.4,0.2-0.8,0.3-1.1c0-0.1-0.1,0-0.1,0c-0.4,0.5-0.7,0.9-1,1.4c-2.7,0.9-5.5,1.7-8.2,2.4c0.2-0.7,0.4-1.3,0.5-2
				c0,0-0.1,0-0.1,0c-0.4,0.7-0.8,1.5-1.3,2.2c-0.1,0-0.2,0-0.3,0.1c-1.2,0.3-2.4,0.6-3.7,0.9c0-0.2,0-0.5,0-0.7c0,0-0.1,0-0.1,0
				c-0.2,0.3-0.4,0.6-0.6,0.8c-7.9,1.8-15.8,3.3-23.7,5.2c0,0,0,0,0,0c4.4-0.6,8.9-0.9,13.4-1.5c3.1-0.5,6.2-1,9.2-1.6
				c-0.5,0.9-1.1,1.8-1.6,2.8c-0.1,0.2,0.2,0.1,0.3,0c0.6-1,1.3-1.9,2-2.9c0,0,0,0,0,0c1.2-0.3,2.5-0.5,3.7-0.8
				c-1.1,1.9-2.3,3.9-3.4,5.8c-7.3,2.2-14.8,3.8-22.6,3.5c0,0-0.1,0.1,0,0.1c7.2,0.7,14.4,0,21.5-1.8c-1.5,2.4-3.2,4.8-4.9,7.1
				c-2.6,0.6-5.3,1.1-7.9,1.5c-3.5,0.5-7.2,1.3-10.7,1.5c0,0-0.1,0,0,0c3.3,0.2,6.3,0.6,9.7,0.3c2.5-0.2,4.9-0.7,7.3-1.2
				c-0.5,0.7-1.1,1.3-1.6,2c-0.2,0.2,0.2,0.2,0.3,0.1c0.7-0.7,1.4-1.4,2.2-2.2c0.6-0.1,1.2-0.3,1.8-0.4c1.7-0.4,3.4-0.9,5.1-1.5
				c-2.1,2.6-4.2,5.1-6.4,7.5c-2.1,0.5-4.3,0.9-6.5,1.2c-2.5,0.5-5.1,1.3-7.6,1.7c0,0-0.1,0,0,0c2.3-0.2,4.6,0.1,7-0.2
				c1.8-0.2,3.6-0.5,5.4-0.8c-0.2,0.2-0.3,0.4-0.5,0.6c-0.2,0.2,0.2,0.2,0.3,0.1c0.2-0.2,0.5-0.5,0.7-0.7c0.7-0.1,1.5-0.3,2.2-0.4
				c4.1-0.9,10.4-2.3,13.1-6c0.3-0.4-0.2-0.6-0.5-0.5c-1.9,0.6-3.7,1.8-5.5,2.6c-2.3,1-4.8,1.6-7.2,2.2c2.5-2.6,4.9-5.2,7.3-7.9
				c1-0.4,2-0.7,3-1.1c3-1.1,6.7-2.3,9.1-4.6c0.2-0.2,0.6-0.9-0.1-0.8c-2.6,0.3-5,1.9-7.4,2.9c-0.8,0.3-1.6,0.7-2.4,1
				c0.5-0.6,0.9-1.1,1.4-1.7c1.4-1.8,2.9-3.6,4.3-5.6c3.1-1.2,6.2-2.5,9.2-3.9c1-0.4,1.3-1.8-0.1-1.3c-2.5,0.9-5,1.8-7.5,2.8
				c1-1.5,1.9-3.1,2.6-4.7c1.9-0.6,3.7-1.3,5.5-2c1.8-0.7,3.8-1.5,5.7-2.5c-2.5,4.1-4.9,8.1-7.7,12c-3,4.1-6.2,8.2-9.1,12.5
				c-0.2,0.4,0.4,0.2,0.6,0c3.6-4.3,7.2-8.6,10.5-13.2c2.7-3.7,5.7-7.7,7.2-12.1c1.8-1,3.4-2.2,4.5-3.7
				C259.5,164.7,259,164.5,258.4,164.6z M232.1,186.6c-0.7,0.9-1.3,1.8-2,2.7c-1.9,0.7-3.8,1.3-5.7,1.8c-0.4,0.1-0.7,0.2-1.1,0.3
				c2-2.3,4-4.7,5.7-7.3c2.1-0.6,4.2-1.2,6.2-1.9C234.2,183.6,233.2,185.1,232.1,186.6z M236.7,179.8c-2.2,0.8-4.3,1.5-6.5,2.2
				c1-1.8,1.9-3.6,2.6-5.4c2.4-0.6,4.8-1.2,7.2-1.9C238.9,176.4,237.8,178.1,236.7,179.8z"/>
			<path fill-rule="evenodd" clip-rule="evenodd" fill="#2B1B0E" d="M231.4,203.8c-1.3-0.1-2.5,0.3-3.8,0.7c-1.8,0.5-3.7,1-5.6,1.4
				c-3.9,1-7.5,2.5-11.3,3.7c0,0,0,0,0,0c3.4-1.1,7.3-1.3,10.7-2c3.1-0.6,7-1.1,9.6-2.9C231.3,204.6,232,203.8,231.4,203.8z"/>
			<path fill-rule="evenodd" clip-rule="evenodd" fill="#2B1B0E" d="M225.2,211c-1.8-0.3-3.6,1.1-5.2,1.8c-2.4,1.1-4.8,2-7.3,3
				c-1.1,0.4-2.2,2.4-0.2,2c2.7-0.6,5.2-1.7,7.7-2.8c1.9-0.8,4.1-1.6,5.3-3.3C225.6,211.4,225.5,211.1,225.2,211z"/>
			<path fill-rule="evenodd" clip-rule="evenodd" fill="#2B1B0E" d="M221.8,218.6c-1.9-0.4-4.2,0.6-6,1.1c-2.1,0.6-4.1,1.2-6.1,2
				c-0.6,0.2-1.3,1.4-0.1,1.2c1.9-0.5,3.8-1,5.8-1.5c2.1-0.5,4.4-0.9,6.3-2C221.8,219.3,222.3,218.7,221.8,218.6z"/>
			<path fill-rule="evenodd" clip-rule="evenodd" fill="#2B1B0E" d="M219.6,223.9c-2-0.1-4.1,0.8-5.9,1.3c-2.1,0.6-4,1.6-6,2.3
				c-0.1,0-0.1,0.1,0,0.1c3.8-1.2,8.1-1,11.7-2.8C219.6,224.7,220.4,224,219.6,223.9z"/>
			<path fill-rule="evenodd" clip-rule="evenodd" fill="#2B1B0E" d="M85.9,126.7c-4.1,1.2-8.1,3.2-11.9,5.1
				c-3.6,1.8-6.7,3.9-9.4,6.8c-0.1,0.1,0,0.1,0.1,0c6.3-5.5,14.2-7.5,21.2-11.5C86.1,127,86.2,126.6,85.9,126.7z"/>
			<path fill-rule="evenodd" clip-rule="evenodd" fill="#2B1B0E" d="M279.8,139.2c-0.5-5.3-6.6-7.8-10.3-10.8
				c-0.6-0.5-2.6,0.9-2,1.6c3,3,7.7,6.8,7.9,11.3c0.1,2.2-0.5,4.5-1.6,6.5c-2.6,4.7-8,7.7-12.8,9.9c-4.2,2-8.5,3.7-13,5.1
				c0.5-0.7,0.5-1.3-0.1-1.7c-6.7-3.4-13.7-6.2-20.8-8.5c-13.2-2.2-26.6-3.2-39.5-6.4c-6.4-0.1-12.8-0.1-19.1-0.2
				c-3.5,0-6.9-0.2-10.4-0.4c-5.1,0.2-10.1,0.4-15.2,0.7c-5.3,0.3-10.7,0.5-16,0.4c-4.4,1-8.6,2.1-12.9,3.6
				c-8.4,2.8-18.2,6.6-24.5,13.2c-0.5-0.1-1-0.3-1.5-0.4c-0.2-0.1-0.4-0.1-0.7-0.2c-0.1-0.1-0.1-0.3-0.2-0.4
				c0.8-0.4,1.6-0.8,2.4-1.3c0.1,0.3,0.3,0.7,0.4,1c0,0,0.1,0,0,0c-0.2-0.3-0.3-0.7-0.4-1c1.7-0.9,3.5-1.8,5.3-2.7
				c5.2-2.7,10.5-5.1,15.7-7.7c0.5-0.2,1.2-1.4,0.1-1.1c-7.5,2.3-14.7,6.1-21.6,10.4c0-0.1-0.1-0.2-0.1-0.3c0,0-0.1,0,0,0
				c0,0.1,0.1,0.2,0.1,0.3c-0.8,0.5-1.6,1-2.4,1.5c-0.9-1.5-2-2.9-2.8-4.4c1.9-1,3.8-2,5.7-3c6.2-3.3,12.8-5.7,19-9
				c0.4-0.2,0.5-0.7,0-0.6c-6.2,1.2-12.3,4.9-17.8,7.8c-2.4,1.3-4.8,2.6-7.1,4c-0.1-0.2-0.1-0.3-0.2-0.5c0,0,0,0,0,0
				c0,0.2,0.1,0.4,0.1,0.5c-0.7,0.4-1.5,0.9-2.2,1.3c-0.2-0.5-0.4-1-0.6-1.5c-0.7-1.8-1.1-3.6-2-5.4c8.2-4,16.6-7.5,25.2-10.8
				c0.1,0,0.3-0.3,0-0.2c-10.2,3.1-20.7,6.5-29.9,12c-0.3-0.8-0.7-1.6-1.2-2.4c0-0.1-0.2,0-0.2,0.1c0.3,0.9,0.5,1.8,0.8,2.7
				c-1,0.6-1.9,1.2-2.9,1.9c-0.6-1.8-1.1-3.7-1.5-5.6c0.7-0.5,1.3-1.1,2-1.6c3.6-2.8,7.8-4.7,12.1-6.5c8.3-3.4,17-6,25.6-8.8
				c0.1,0,0.2-0.3,0.1-0.2c-8.6,2.5-17.4,4.5-25.7,7.9c-4,1.6-7.9,3.4-11.4,6c-0.9,0.7-1.9,1.4-2.8,2.2c-0.1-0.5-0.2-1-0.3-1.5
				c0-0.1-0.3,0-0.3,0.1c-0.1,0.6-0.1,1.3-0.1,1.9c-0.7,0.6-1.4,1.2-2,1.8c0-0.2-0.1-0.4-0.1-0.6c-0.3-2-0.1-4-0.4-6
				c2.9-3.5,7.5-5.6,11.4-7.6c4.3-2.1,8.9-3.7,12.8-6.5c0.3-0.2,0.2-0.5-0.2-0.3c-5,2.7-10.3,4.6-15.3,7.3c-3.1,1.6-6.4,3.5-8.9,6.1
				c0-0.1,0-0.1,0-0.2c0-0.1-0.1,0-0.1,0c-0.1,0.2-0.1,0.3-0.1,0.5c-0.8,0.9-1.5,1.9-2.1,3.1c-0.3,0.7,0.8,0.3,1-0.1
				c0.2-0.4,0.4-0.7,0.6-1.1c-0.3,2-0.2,4.3,0.3,6.4c-0.4,0.3-0.7,0.7-1.1,1c-2-1.8-3.5-4-3.6-6.8c0-2,0.8-3.9,2-5.5
				c0-0.1,0,0-0.1,0c-4.4,4.7-4,9-0.8,12.7c2,1.4,4,2.7,6,3.9c0,0,0,0,0,0.1c0,0,0.1,0,0.1,0c1.3,0.8,2.6,1.6,3.9,2.5
				c0.4,0.3,0.7,0.6,0.9,0.9c1,0.4,1.9,0.9,3,1.3c-0.3,0.2-0.5,0.3-0.8,0.4c0.1,0,0.2,0.1,0.3,0.1c0.3-0.1,0.5-0.3,0.8-0.4
				c2.3,0.9,4.8,1.8,7.3,2.7c-0.3,0.2-0.6,0.4-1,0.7c0.1,0.1,0.3,0.1,0.4,0.2c0.4-0.2,0.8-0.4,1.3-0.6c14.7,4.8,31.2,7.5,35.5,8.3
				c12.1,2.1,24.6,4.3,36.9,4.4c11.5,0.2,23.2-0.1,34.9-1c17.6-1.4,35.4-4,52.5-8.8c7.4-2,14.7-4.6,21.4-8.3
				c5.2-2.9,10.4-6.6,13.2-12C279.5,144.5,280.1,141.9,279.8,139.2z M64.3,152.4c0.3-0.2,0.6-0.4,0.8-0.6c0.2,0.6,0.4,1.2,0.6,1.7
				C65.2,153.1,64.7,152.8,64.3,152.4z M68.4,155.2c-0.3-0.1-0.5-0.3-0.8-0.5c-0.4-1.3-0.9-2.6-1.2-4c0.6-0.5,1.2-1,1.9-1.5
				c0.1,2,0.4,3.9,1.2,5.7c-0.2,0.2-0.4,0.3-0.6,0.5C68.7,155.4,68.5,155.3,68.4,155.2z M69.4,155.8c0.1-0.1,0.2-0.1,0.3-0.2
				c0.1,0.2,0.2,0.3,0.2,0.5C69.8,156,69.6,155.9,69.4,155.8z M71.5,156.8c-0.2-0.6-0.5-1.2-0.7-1.9c1-0.5,2-1.1,2.9-1.6
				c0.1,0.4,0.2,0.9,0.4,1.3c0.3,1.3,0.6,2.7,1.2,3.9C74,158.1,72.7,157.5,71.5,156.8z M76.4,159.1c-0.3-1.4-0.8-2.7-1.3-4
				c-0.2-0.7-0.5-1.3-0.7-2c1.2-0.6,2.4-1.2,3.6-1.8c0.1,2.4,0.5,5.2,1.6,7.5c-0.5,0.3-1.1,0.6-1.6,1
				C77.4,159.5,76.9,159.3,76.4,159.1z M78.5,159.9c0.4-0.2,0.9-0.5,1.3-0.7c0.3,0.6,0.6,1.1,1,1.5
				C80.1,160.5,79.3,160.2,78.5,159.9z M85.5,162.4c-1-0.3-1.9-0.6-2.9-0.9c0,0,0,0,0,0c-0.3-1-0.7-2-1.2-3c0.7-0.4,1.4-0.7,2.1-1.1
				c0.4,1.7,1,3.5,2.1,4.9C85.6,162.3,85.6,162.3,85.5,162.4z M211.8,170.4c-15.2,2.2-30.6,3.8-45.9,4c-9.6,0.2-19.1-0.7-28.6-1.8
				c-15.4-1.8-31-4.5-46-8.6c4.1-2.3,8-4.8,12.2-6.7c4.9-2.3,10-4,15.2-5.4c11.3-3,23-4.4,34.8-4.8c23.6-0.7,47.8,2.6,70.4,9.7
				c6.4,2,12.7,4.5,18.7,7.5C232.5,167.2,222,168.9,211.8,170.4z"/>
			<path fill-rule="evenodd" clip-rule="evenodd" fill="#2B1B0E" d="M212.5,235.9c-3.4,0.6-6.6,2.6-9.8,3.8
				c-3.5,1.4-7.2,2.2-10.9,2.8c-7.3,1.1-14.8,1.2-22.2,1.1c-8-0.1-16.1,0.4-24-1.1c-3.9-0.8-7.7-1.8-11.6-3
				c-4.2-1.2-8.4-3.1-12.8-3.4c0,0-0.1,0,0,0c3.1,2.2,7.4,3,11,4.1c4.1,1.3,8.3,2.4,12.5,3.3c7.8,1.6,15.6,2.2,23.5,2.5
				c7.6,0.3,15.4,0,23-1.1c7.3-1.1,15.3-3.4,21.5-7.5C213.4,236.9,214,235.6,212.5,235.9z"/>
			<path fill-rule="evenodd" clip-rule="evenodd" fill="#2B1B0E" d="M216.2,175.5c-2.4-0.7-5.1,0-7.6,0.3c-2.7,0.4-5.4,0.9-8.1,1.3
				c-6.2,1.1-12.4,1.9-18.6,2.9c-6.6,1.1-13.5,0.9-20.1,0.6c-6.9-0.3-13.8-0.9-20.5-1.9c0,0-0.1,0.1-0.1,0.1
				c12.6,2.6,25,3.7,37.9,3.2c6-0.2,11.9-1.2,17.9-2.2c3.4-0.6,6.9-1.2,10.3-1.7c2.9-0.4,5.8-0.7,8.5-1.6
				C216.1,176.4,216.9,175.7,216.2,175.5z"/>
			<path fill-rule="evenodd" clip-rule="evenodd" fill="#2B1B0E" d="M261.9,171.8c-2.2,2.1-4.5,4.1-7,5.9c2.1-3.1,4.2-6.3,6.3-9.4
				c1.3-2,4.2-5.1,3.4-7.7c0,0-0.1,0-0.1,0c-1.9,2.7-3.3,5.7-5.1,8.5c-2.1,3.3-4.3,6.7-6.4,10c-1.7,1.1-3.5,2.2-5.4,3.1c0,0,0,0,0,0
				c1.7-0.8,3.4-1.7,5-2.6c-1.9,2.9-3.8,5.7-5.6,8.6c-1.3,0.9-2.7,1.8-4,2.8c0,0,0,0.1,0,0c1.1-0.7,2.3-1.4,3.5-2.1
				c-1.9,2.9-3.7,5.9-5.4,8.9c-1.6,1.1-3.2,2.1-4.5,3.5c0,0,0,0.1,0,0.1c2.4-0.6,4.5-2.3,6.6-3.7c2.6-1.7,5-3.6,7.5-5.4
				c0.4-0.3,0-0.5-0.3-0.3c-2.5,1.3-4.8,2.8-7.1,4.5c-0.4,0.3-0.7,0.5-1.1,0.8c2-3,4-6,6-9c3.7-2.1,7.5-4.2,10.4-7.3
				c0.3-0.3-0.2-0.4-0.4-0.2c-3.1,2.1-6.2,4.3-9.3,6.4c1.9-2.8,3.8-5.6,5.7-8.4c2.9-1.8,5.5-3.9,7.8-6.6
				C262.3,171.6,262,171.6,261.9,171.8z"/>
			<path fill-rule="evenodd" clip-rule="evenodd" fill="#2B1B0E" d="M274,155.9c-3.3,3.2-6.3,7.2-8.4,11.3c-0.2,0.4,0.5,0.2,0.6,0
				C269,163.7,271.8,159.9,274,155.9C274.1,155.9,274,155.9,274,155.9z"/>
			<path fill-rule="evenodd" clip-rule="evenodd" fill="#2B1B0E" d="M245.6,199.8c-4.5,2.4-7.8,6.7-12.6,8.7c-0.1,0-0.1,0.2,0,0.1
				c5-1.3,9.5-4.8,13.1-8.5C246.6,199.7,245.9,199.6,245.6,199.8z"/>
			<path fill-rule="evenodd" clip-rule="evenodd" fill="#2B1B0E" d="M242.4,207.2c-2.3,1.2-4.6,2.5-6.8,3.9
				c-1.2,0.7-2.4,1.4-3.7,1.8c-0.6,0.2-1.2,0.1-1.7,0.5c-1.9,1.7,1.9,0.9,2.1,0.8c1.4-0.5,2.7-1.3,4-2c2.4-1.3,4.5-2.9,6.5-4.6
				C243.4,207.2,242.9,207,242.4,207.2z"/>
			<path fill-rule="evenodd" clip-rule="evenodd" fill="#2B1B0E" d="M235.9,215.7c-1.5,0.7-3,1.6-4.5,2.4c-1.3,0.8-2.9,1.6-3.9,2.7
				c-0.2,0.2-0.1,0.4,0.2,0.3c1.4-0.3,2.6-1.1,3.8-1.8c1.6-1,3.2-2.1,4.7-3.2C236.5,215.8,236.3,215.5,235.9,215.7z"/>
			<path fill-rule="evenodd" clip-rule="evenodd" fill="#2B1B0E" d="M231.1,224.4c-1.3,0.2-2.5,0.9-3.6,1.5c-1,0.5-2.1,1.1-3,1.8
				c-0.3,0.3-0.4,0.8,0.2,0.6c1-0.2,2-0.8,2.9-1.2c1.2-0.6,2.5-1.2,3.6-2C231.5,224.8,231.7,224.2,231.1,224.4z"/>
		</g>
		<g>
			<path d="M319.7,345.6c-0.5-0.3-0.9-0.7-1.4-1.1c-0.4-0.4-0.9-0.8-1.3-1.1c-0.9-0.8-1.7-1.5-2.6-2.3c-1.7-1.6-3.4-3.1-5-4.7
				c-3.4-3.2-6.7-6.3-10-9.5l-20-19.1l-40-38.2c-6.6-6.4-13.3-12.7-19.9-19.1l-9.9-9.6l-9.9-9.6l-9.9-9.7l-9.8-9.7l-19.7-19.4
				l-19.6-19.5l-19.6-19.5l-39.1-39.1l-39.1-39l-9.8-9.7c-3.3-3.2-6.5-6.5-9.8-9.7c-0.8-0.8-1.7-1.6-2.5-2.4L20.3,53
				c-0.2-0.2-0.4-0.4-0.6-0.6L19,51.8l-0.7-0.6c-1.8-1.8-3.2-3.9-4-6.4c-0.4-1.2-0.7-2.5-0.7-3.8c-0.1-1.3,0-2.6,0.3-3.8
				c0.6-2.5,1.9-4.8,3.7-6.6c1.8-1.8,4.2-3,6.7-3.5c1.3-0.2,2.5-0.2,3.8-0.1c1.3,0.2,2.5,0.5,3.6,1c2.3,0.9,4.3,2.3,6.1,4
				c0.2,0.2,0.4,0.4,0.7,0.6c0.2,0.2,0.4,0.4,0.6,0.6l1.2,1.3l2.4,2.5C49,43.7,55.4,50.3,61.8,57c12.8,13.2,25.7,26.4,38.6,39.6
				c6.4,6.6,12.9,13.2,19.3,19.7l19.4,19.7l19.3,19.7c6.4,6.6,12.8,13.2,19.2,19.8c6.4,6.6,12.7,13.3,19.1,20
				c6.3,6.7,12.6,13.4,18.8,20.2l9.4,10.2c3.1,3.4,6.2,6.8,9.3,10.2l9.2,10.3l4.6,5.2c1.5,1.7,3.1,3.4,4.6,5.2l18.2,20.8l4.5,5.2
				l4.5,5.2l9,10.5l9.1,10.4c1.5,1.7,3,3.5,4.5,5.2l4.5,5.2c6,7,12.1,13.9,18.1,20.8l0.1,0.1l0,0.1c0,0.2,0,0.4,0,0.6
				c0,0.2,0,0.4,0,0.6c0,0.2,0,0.4,0,0.6c0,0.2-0.1,0.4-0.1,0.6c0,0.2-0.1,0.4-0.2,0.6c-0.1,0.2-0.1,0.4-0.2,0.6l-0.1,0.3l-0.1,0.3
				c-0.1,0.2-0.2,0.3-0.3,0.5c-0.1,0.2-0.3,0.3-0.4,0.5c-0.1,0.1-0.2,0.1-0.2,0.2c-0.1,0.1-0.2,0.1-0.3,0.2
				c-0.2,0.1-0.4,0.2-0.6,0.3c-0.2,0.1-0.4,0.1-0.6,0.2c-0.1,0-0.2,0-0.3,0c-0.1,0-0.2,0-0.3,0c-0.2,0-0.4-0.1-0.6-0.1l-0.3-0.1
				c-0.1,0-0.2-0.1-0.3-0.1c-0.1,0-0.2-0.1-0.3-0.1L319.7,345.6L319.7,345.6z"/>
			<path fill="#F5F3F0" d="M320,345.3l0.3,0.2l0.2,0.1l0.3,0.1l0.3,0.1c0.2,0,0.4,0.1,0.5,0.1c0.1,0,0.2,0,0.3,0c0.1,0,0.2,0,0.3,0
				c0.2,0,0.3-0.1,0.5-0.1c0.2-0.1,0.3-0.1,0.5-0.2c0.1,0,0.2-0.1,0.2-0.2c0.1-0.1,0.1-0.1,0.2-0.2c0.1-0.1,0.3-0.3,0.4-0.4
				c0.1-0.1,0.2-0.3,0.3-0.5l0.1-0.2l0.1-0.3c0.1-0.2,0.1-0.3,0.2-0.5c0.1-0.2,0.1-0.4,0.1-0.5c0-0.2,0.1-0.4,0.1-0.6
				c0-0.2,0-0.4,0-0.6c0-0.2,0-0.4,0-0.6c0-0.2,0-0.4,0-0.6l0.1,0.1c-6.1-6.9-12.2-13.8-18.3-20.7l-4.6-5.1l-2.3-2.6
				c-0.8-0.9-1.6-1.7-2.3-2.6l-9.3-10.2l-9.4-10.2l-4.7-5.1l-4.7-5l-18.9-20.2c-6.3-6.7-12.6-13.4-18.9-20.1l-18.8-20.2l-18.8-20.2
				L175,178.1c-6.3-6.7-12.5-13.5-18.8-20.3l-18.8-20.2c-6.3-6.7-12.6-13.4-18.9-20.1c-3.2-3.3-6.4-6.7-9.5-10l-9.6-10
				C86.6,84.3,73.7,71.1,60.7,58.1c-6.5-6.5-13-13-19.5-19.6L38.8,36l-1.2-1.2c-0.2-0.2-0.4-0.4-0.6-0.6c-0.2-0.2-0.4-0.4-0.6-0.5
				c-1.6-1.5-3.5-2.7-5.5-3.4c-1-0.4-2-0.6-3.1-0.7c-1-0.1-2.1-0.1-3.1,0.1c-2,0.4-3.9,1.4-5.3,2.9C18,34,17,35.8,16.6,37.8
				c-0.2,1-0.3,2-0.2,3c0.1,1,0.3,2,0.7,3c0.7,1.9,1.9,3.7,3.4,5.1l0.6,0.5l0.6,0.5c0.2,0.2,0.4,0.4,0.7,0.6l0.3,0.3l0.3,0.3
				c0.9,0.8,1.7,1.6,2.6,2.3c3.4,3.1,6.7,6.3,10.1,9.5l10,9.6C59,85.4,72.1,98.3,85.3,111.2c13.1,12.9,26.3,25.8,39.4,38.8
				l19.6,19.4l19.6,19.5l19.5,19.5l9.8,9.8l9.7,9.8l9.7,9.8l9.7,9.8l19.3,19.7l19.3,19.8l9.7,9.9l9.7,9.8c6.5,6.5,13,13,19.6,19.5
				c3.3,3.2,6.6,6.4,9.9,9.6c1.7,1.6,3.3,3.2,5,4.7c0.8,0.8,1.7,1.6,2.5,2.3c0.4,0.4,0.9,0.8,1.3,1.1
				C319.1,344.6,319.5,345,320,345.3L320,345.3z"/>
		</g>
		<g>
			<path d="M19.1,345.7l-0.3,0.2c-0.1,0-0.2,0.1-0.3,0.1c-0.1,0-0.2,0.1-0.3,0.1l-0.3,0.1c-0.2,0-0.4,0.1-0.6,0.1
				c-0.1,0-0.2,0-0.3,0c-0.1,0-0.2,0-0.3,0c-0.2,0-0.4-0.1-0.6-0.2c-0.2-0.1-0.4-0.2-0.6-0.3c-0.1-0.1-0.2-0.1-0.3-0.2
				c-0.1-0.1-0.2-0.1-0.2-0.2c-0.2-0.1-0.3-0.3-0.4-0.5c-0.1-0.2-0.2-0.3-0.3-0.5l-0.1-0.3l-0.1-0.3c-0.1-0.2-0.2-0.4-0.2-0.6
				c-0.1-0.2-0.1-0.4-0.2-0.6c0-0.2-0.1-0.4-0.1-0.6c0-0.2,0-0.4,0-0.6c0-0.2,0-0.4,0-0.6c0-0.2,0-0.4,0-0.6l0-0.1l0.1-0.1
				c6.1-6.9,12.1-13.9,18.1-20.8l4.5-5.2c1.5-1.7,3-3.5,4.5-5.2l9.1-10.4l9-10.5l4.5-5.2l4.5-5.2l18.2-20.8c1.5-1.7,3.1-3.5,4.6-5.2
				l4.6-5.2l9.2-10.3c3.1-3.4,6.2-6.8,9.3-10.2l9.4-10.2c6.3-6.8,12.5-13.5,18.8-20.2c6.3-6.7,12.7-13.4,19.1-20
				c6.4-6.6,12.8-13.2,19.2-19.8l19.3-19.7l19.4-19.7c6.5-6.6,12.9-13.1,19.3-19.7C251.3,83.4,264.2,70.2,277,57
				c6.4-6.6,12.8-13.2,19.2-19.9l2.4-2.5l1.2-1.3c0.2-0.2,0.4-0.4,0.6-0.6c0.2-0.2,0.4-0.4,0.7-0.6c1.8-1.6,3.8-3,6.1-4
				c1.2-0.5,2.4-0.8,3.6-1c1.3-0.2,2.5-0.1,3.8,0.1c2.5,0.4,4.9,1.7,6.7,3.5c1.8,1.8,3.1,4.1,3.7,6.6c0.3,1.3,0.4,2.5,0.3,3.8
				c-0.1,1.3-0.3,2.6-0.7,3.8c-0.8,2.4-2.3,4.6-4,6.4l-0.7,0.6l-0.7,0.6c-0.2,0.2-0.4,0.4-0.6,0.6l-0.6,0.6
				c-0.8,0.8-1.7,1.6-2.5,2.4c-3.3,3.2-6.6,6.4-9.8,9.7l-9.8,9.7l-39.1,39l-39.1,39.1l-19.6,19.5l-19.6,19.5l-19.7,19.4l-9.8,9.7
				l-9.9,9.7l-9.9,9.6l-9.9,9.6c-6.6,6.4-13.3,12.8-19.9,19.1l-40,38.2l-20,19.1c-3.3,3.2-6.7,6.4-10,9.5c-1.7,1.6-3.3,3.2-5,4.7
				c-0.8,0.8-1.7,1.6-2.6,2.3c-0.4,0.4-0.9,0.8-1.3,1.1C20.1,344.9,19.7,345.3,19.1,345.7L19.1,345.7z"/>
			<path fill="#F5F3F0" d="M18.9,345.3c0.4-0.3,0.9-0.7,1.3-1.1c0.4-0.4,0.9-0.8,1.3-1.1c0.9-0.8,1.7-1.6,2.5-2.3
				c1.7-1.6,3.4-3.2,5-4.7c3.3-3.2,6.6-6.4,9.9-9.6c6.6-6.5,13.1-13,19.6-19.5l9.7-9.8l9.7-9.9l19.3-19.8l19.3-19.7l9.7-9.8l9.7-9.8
				l9.7-9.8l9.8-9.8l19.5-19.5l19.6-19.5l19.6-19.4c13.1-12.9,26.2-25.9,39.4-38.8c13.2-12.9,26.3-25.8,39.6-38.6l10-9.6
				c3.3-3.2,6.7-6.4,10.1-9.5c0.9-0.8,1.7-1.6,2.6-2.3l0.3-0.3l0.3-0.3c0.2-0.2,0.4-0.4,0.7-0.6l0.6-0.5l0.6-0.5
				c1.5-1.5,2.7-3.2,3.4-5.1c0.3-1,0.6-2,0.7-3c0.1-1,0-2-0.2-3c-0.4-2-1.4-3.9-2.8-5.3c-1.4-1.5-3.3-2.5-5.3-2.9
				c-1-0.2-2-0.2-3.1-0.1c-1,0.1-2.1,0.4-3.1,0.7c-2,0.7-3.8,2-5.5,3.4c-0.2,0.2-0.4,0.4-0.6,0.5c-0.2,0.2-0.4,0.4-0.6,0.6l-1.2,1.2
				l-2.4,2.5c-6.5,6.6-13,13.1-19.5,19.6c-13,13.1-25.9,26.2-38.7,39.4l-9.6,10c-3.2,3.3-6.4,6.7-9.5,10
				c-6.3,6.7-12.6,13.4-18.9,20.1l-18.8,20.2c-6.2,6.8-12.5,13.5-18.8,20.3l-18.8,20.3l-18.8,20.2l-18.8,20.2
				c-6.3,6.7-12.6,13.4-18.9,20.1l-18.9,20.2l-4.7,5l-4.7,5.1l-9.4,10.2l-9.3,10.2c-0.8,0.9-1.6,1.7-2.3,2.6l-2.3,2.6l-4.6,5.1
				c-6.1,6.9-12.3,13.7-18.3,20.7l0.1-0.1c0,0.2,0,0.4,0,0.6c0,0.2,0,0.4,0,0.6c0,0.2,0,0.4,0,0.6c0,0.2,0,0.4,0.1,0.6
				c0,0.2,0.1,0.4,0.1,0.5c0.1,0.2,0.1,0.4,0.2,0.5l0.1,0.3l0.1,0.2c0.1,0.2,0.2,0.3,0.3,0.5c0.1,0.1,0.2,0.3,0.4,0.4
				c0.1,0.1,0.1,0.1,0.2,0.2c0.1,0.1,0.1,0.1,0.2,0.2c0.1,0.1,0.3,0.2,0.5,0.2c0.2,0.1,0.3,0.1,0.5,0.1c0.1,0,0.2,0,0.3,0
				c0.1,0,0.2,0,0.3,0c0.2,0,0.4,0,0.5-0.1l0.3-0.1l0.3-0.1l0.2-0.1L18.9,345.3L18.9,345.3z"/>
		</g>
	</g>
	<path fill-rule="evenodd" clip-rule="evenodd" fill="#2B1B0E" d="M118.9,50.7c-4.4-3.7-11.4-3.3-16.7-3.6c-1.6-0.1-3.8-0.3-5.6-0.7
		c-1.1-0.3-2.5-1-2.7-1.7c-0.5-1.6,0.8-3.4,1.9-4.8c2.2-2.9,6.1-3,9.5-3c0.6,0,3.3-1.4,2.4-2.3c-3.6-3.9-9.6-1.4-13.3,1.1
		c-3.3,2.2-6.8,6-7.6,10.1c-1.2,6,6.5,6.6,10.7,6.9c2.8,0.1,5.1,0.1,7.7,0.4c2.8,0.4,5.7,0.9,8,2.8c0.4,0.4,1,1.3,1.3,2
		c0.2,0.4,0.1,1.5,0,2.1c-0.3,1.3-0.3,1.2-1,2.3c-0.1,0.2-0.3,0.5-0.4,0.7c0,0,0,0,0,0.1c0,0,0,0.1-0.1,0.1c-0.4,0.5-0.9,1-1.3,1.5
		c-0.1,0.1-0.1,0.1-0.1,0.1c-0.1,0-0.1,0.1-0.2,0.2c-0.4,0.3-0.8,0.7-1.2,1c-0.1,0.1-0.5,0.4-0.7,0.5c-0.3,0.2-0.6,0.4-0.9,0.6
		c-0.3,0.2-0.7,0.4-1.1,0.6c-0.1,0-0.1,0.1-0.2,0.1c-0.1,0-0.2,0.1-0.3,0.1c-0.4,0.2-0.9,0.4-1.4,0.6c0,0,0,0,0,0
		c-0.2,0.1-0.3,0.1-0.5,0.2c-0.4,0.1-0.7,0.2-1.1,0.3c0,0,0,0,0,0c-0.2,0-0.4,0-0.6,0.1c-0.2,0-0.5,0-0.7,0c0.3,0-0.7-0.1-0.9-0.1
		c-0.2,0-0.5-0.1-0.7-0.2c0.3,0.1-0.6-0.2-0.7-0.3c-1.1-0.6-2.2-1.1-3.5-0.9c-2.1,0.2-4.6,1.7-5.3,3.8c-1,3,3,4.2,5.2,4.3
		c3.1,0.2,6-0.5,8.9-1.6c5.5-2.1,10.7-6.2,13.9-11.2C122.1,58.8,122.8,53.9,118.9,50.7z"/>
	<path fill-rule="evenodd" clip-rule="evenodd" fill="#2B1B0E" d="M157.7,33.5c0-2.3-0.5-4.6-2.8-5.5c-1.3-0.5-3.2,0.8-3.7,1.9
		c-1.1,2.1-0.9,4.6-1,7.1c0,3-0.4,6-0.9,8.9c-1,5.4-2.6,11.4-5.7,15.6c0-0.1-0.3,0.3-0.6,0.6c-0.1,0-0.1,0-0.3-0.1
		c-2-0.5-4-2.8-5.2-4.8c-3.7-6.6-4.5-14.6-5.5-21.9c-0.3-1.9-0.2-4.1-0.9-6c-0.1-0.2-0.3-0.4-0.6-0.4c-1-0.1-1.8,0.1-2.6,0.6
		c-2.5,1.8-2.3,6.5-2.2,9.2c0.1,4,0.6,8,1.3,11.9c1.2,6.3,3.3,13.5,9.7,16.2c5.6,2.4,11.7-2.7,14.5-7.1c3.3-5.4,4.9-11.8,5.8-18
		C157.4,39.1,157.7,36.3,157.7,33.5z"/>
	<path fill-rule="evenodd" clip-rule="evenodd" fill="#2B1B0E" d="M190.2,45c-2.4-2.5-5.6-4.2-8.6-5.8c-2.9-1.6-6.5-3.8-7.5-7.2
		c-0.1-0.4-0.2-0.8-0.1-1.2c0,0.1,0.1-0.5,0.1-0.5c0.1-0.1,0.2-0.5,0.2-0.4c0.1-0.2,0.2-0.3,0.4-0.4c-0.3,0.2,0.7-0.4,0.9-0.5
		c2.6-1.1,5.7-0.9,8.5-0.6c0.7,0.1,3-1.4,2.2-2.3c-4.5-4.8-12.8-0.9-16.2,3.3c-2,2.4-2,5.5-0.6,8.2c1.8,3.5,5.8,5.4,9.1,7.2
		c3,1.7,6.1,3.6,7.9,6.6c0.7,1.2,0.8,2.6,0.2,3.9c-0.3,0.7-1,1.3-1.5,1.8c-0.1,0.1-0.3,0.3-0.5,0.3c-0.1,0-0.1,0.1-0.2,0.1
		c0,0-0.1,0-0.3,0.1c-3.1,1.2-6.8,1.3-10.1,1.3c-1.6,0-3.2-0.1-4.8-0.3c-2.7-0.4-6.3,1.5-6.7,4.4c-0.1,0.6,0.1,1.4,0.7,1.6
		c3,1.1,6.8,0.7,10,0.4c3.5-0.3,7.2-1,10.4-2.5c3.7-1.7,7.1-4.8,8.7-8.6C193.7,50.6,192.6,47.4,190.2,45z"/>
	<path fill-rule="evenodd" clip-rule="evenodd" fill="#2B1B0E" d="M227.7,39.6c-1-4-3.4-6.9-6.8-9c-2.7-1.6-6.1-2.2-9.2-1.4
		c-0.8,0.2-1.9,0.7-2.9,1.4c-0.2-3-0.4-6-0.9-9c-0.4-2.4-0.9-4.8-1.4-7.2c-0.4-1.9-1.1-4.6-3.2-5.1c-0.5-0.1-1,0.4-1.2,0.8
		c-0.9,2.2-0.5,4.3-0.4,6.6c0.2,2.4,0.4,4.8,0.5,7.2c0.2,5.4,0.4,10.8,0.4,16.2c0,5.1-0.3,10.2-0.8,15.2c-0.2,2.2-0.5,4.5-0.9,6.7
		c-0.2,1-0.3,2-0.6,2.9c-0.2,1-0.8,2.2-0.4,3.1c0.7,1.5,2.4,0.9,3.6-0.1c0,0,0,0-0.1,0.1c0.3-0.2,0.6-0.5,0.9-0.7
		c0.2-0.2,0.4-0.4,0.6-0.6c0.5-0.7,1-1.4,1.2-2.3c0.3-1.1,0.6-2.3,0.8-3.5c0.5-2.2,0.8-4.5,1.1-6.8c0.6-5.3,0.9-10.7,0.9-16
		c0-1,0-2.1,0-3.1c0.5-0.2,1-0.4,1.9-0.4c2,0,4,1.1,5.6,2.2c3.2,2.4,4.3,5.9,4.8,9.8c0.5,4.1,0.1,8.3-0.6,12.3
		c-0.3,1.7-0.8,3.4-1.3,5c-0.2,0.8-0.5,1.5-0.8,2.2c0,0.1-0.1,0.2-0.1,0.2c0,0-0.1,0.1-0.1,0.2c-0.3,0.6-0.6,1.1-0.8,1.7
		c-0.3,0.9-0.3,2.2,0.7,2.5c1.1,0.4,2.5-0.4,3.4-1c2.1-1.4,3.1-3.9,4-6.2c1.4-3.7,2.2-7.8,2.7-11.7
		C228.7,47.9,228.8,43.6,227.7,39.6z"/>
	<path fill-rule="evenodd" clip-rule="evenodd" fill="#2B1B0E" d="M249.7,32.2c-0.2-1.1-2,0.5-2.1,1c-2.5,13.3-8,25.7-11.2,38.8
		c-0.4,1.6,1.7,1.6,2.6,1.2c1.4-0.6,3.1-2,3.3-3.6c1-6.4,3.4-12.6,5.2-18.8C249.3,44.8,251,38.5,249.7,32.2z"/>
	<g>
		<path fill-rule="evenodd" clip-rule="evenodd" fill="#2B1B0E" d="M136.2,278.7c-2.5-0.2-4.8,0.4-7.1,1.5c-1.2,0.6-2.5,1.2-3.6,1.9
			c-0.7,0.5-1.3,1-2,1.5c0.8-0.7-0.5,0.3-0.6,0.4c-3.2,2.1-6.1,4.7-8.6,7.5c0.5-3,0.9-6,1.3-8.9c0.6-4.1,0.8-8.2,0-12.3
			c-0.3-1.4-2.8,0.2-3.1,1c-2.3,8.9-4.1,17.8-6.6,26.7c-1.1,3.9-2.2,7.9-3.3,11.8c-2.1,5.1-3.4,10.4-3.7,15.8
			c-0.1,1.6,2.3,1.5,3.3,1.3c1.8-0.5,4.6-2,5-4.1c0.7-4,1.6-7.9,2.5-11.9c1.8-5.1,4.6-9.9,7.7-14.1c1.3-1.8,2.8-3.4,4.3-5
			c0.6-0.6,1.2-1.2,1.9-1.8c0.2-0.2,0.5-0.4,0.8-0.6c0,0,0.7-0.5,0.8-0.6c0.3-0.2,0.6-0.4,0.9-0.6c-0.8,0.5,0.5-0.2,0.6-0.2
			c0.5-0.2,0.9-0.3,1.4-0.5c0.1,0,0.5-0.2,0.8-0.3c0,0,0,0,0,0c0,0,0,0,0,0c0,0,0.1,0,0.1,0c0,0,0,0,0,0c0,0,0,0,0,0c0,0,0,0,0,0
			c0.7,0.1,1.3,0.1,2.2-0.2c0.1,0,0.2-0.1,0.3-0.1c2.3-0.3,4.4-1.7,5.6-3.6c0.6-0.9,0.9-1.8,0.9-2.9
			C138.2,279.6,137.1,278.7,136.2,278.7z"/>
		<path fill-rule="evenodd" clip-rule="evenodd" fill="#2B1B0E" d="M129,287.2C128.7,287.4,129.2,287.3,129,287.2L129,287.2z"/>
		<path fill-rule="evenodd" clip-rule="evenodd" fill="#2B1B0E" d="M129,287.2C129,287.2,129,287.2,129,287.2
			C129,287.2,129,287.2,129,287.2c0,0,0.1,0,0.1,0c0,0,0,0,0,0C129.1,287.2,129,287.2,129,287.2z"/>
	</g>
	<path fill-rule="evenodd" clip-rule="evenodd" fill="#2B1B0E" d="M167.3,288.6c-0.8-2.3-2-3.9-4-5.2c-1.8-1.2-3-2-3.7-4.2
		c-0.4-1.3-2.1-1.2-3.9-0.5c-2.4-0.1-5,1.1-7,2.4c-3.1,2-5.5,4.9-7.4,8.1c-3.7,6.5-4.9,14.2-5.1,21.6c-0.1,5.8,0.5,12.9,4.3,17.6
		c2.4,3,5.7,5.7,9.8,5.2c4.7-0.5,8.4-3.7,10.9-7.5c4.1-6.1,5.4-14.2,6.2-21.3C168.1,299.4,169.1,293.8,167.3,288.6z M158.5,309.9
		c-0.5,3.8-1.4,7.5-2.6,11.2c-0.6,1.6-1.1,2.9-1.9,4.4c-0.2,0.3-0.4,0.6-0.6,0.9c-0.2-0.1-0.3-0.2-0.6-0.3c-1.7-0.9-3.1-2.5-4.2-4
		c-1.5-2.2-2.1-4.6-2.5-7.1c-1.2-6.8-0.8-14.1,0.9-20.8c0.4-1.7,1-3.4,1.6-5c0.2-0.4,0.4-0.9,0.8-1.6c0.2-0.3,0.4-0.6,0.5-0.9
		c0.1-0.1,0.5-0.7,0.5-0.8c0.3-0.4,0.9-1.1,0.9-1c0,0,0.1,0,0.1-0.1c0.7,1.9,2.1,3.1,3.8,4.3c2.1,1.4,3.3,2.8,3.9,5.3
		C160.2,299.3,159.2,305,158.5,309.9z"/>
	<path fill-rule="evenodd" clip-rule="evenodd" fill="#2B1B0E" d="M183.7,323.4c-0.4-2.7-0.4-5.5-0.4-8.2c0.1-5.8,0.9-29.4,0.1-35.4
		c-0.4-3.1-0.8-6.2-1.1-9.3c-0.2-1.5-0.2-3-0.4-4.5c-0.2-1.3-0.1-2.9-1.4-3.6c-0.5-0.3-1.3,0-1.7,0.4c-2.2,2-2.7,5.2-3,8.1
		c-0.3,3.5-0.1,6.9,0.1,10.3c0.4,6.4-1.3,30.8-1.5,36.6c-0.1,2.8,0,5.5,0.3,8.2c0.3,2.3,0.5,6.7,2.7,7.9c2.2,1.2,6.3-0.4,7.2-2.8
		C185.5,328.8,184.1,325.9,183.7,323.4z"/>
	<path fill-rule="evenodd" clip-rule="evenodd" fill="#2B1B0E" d="M203.8,323c-0.6-2.7-0.9-5.4-1.2-8.1c-0.5-5.8-1.7-29.3-3.1-35.3
		c-0.7-3-1.3-6.1-1.9-9.2c-0.3-1.5-0.5-3-0.8-4.5c-0.3-1.3-0.4-2.9-1.7-3.5c-0.6-0.3-1.3,0.1-1.7,0.5c-2,2.2-2.3,5.5-2.2,8.4
		c0,3.5,0.5,6.9,1,10.3c0.9,6.4,1.4,30.8,1.8,36.6c0.2,2.7,0.5,5.5,1.1,8.2c0.5,2.3,1.1,6.6,3.4,7.6c2.3,1,6.3-0.9,6.9-3.4
		C206,328.2,204.4,325.4,203.8,323z"/>
	<path fill-rule="evenodd" clip-rule="evenodd" fill="#2B1B0E" d="M247.1,308.1c-0.2-3.9-2.6-7.1-5.7-9.3
		c-6.9-4.8-16.1-4.5-22.9-9.6c-1.1-0.8-2-2-2.1-3.1c-0.1-0.7-0.1-0.4,0.3-1.2c-0.2,0.5-0.1,0.3,0,0c0.1-0.1,0.3-0.3,0.4-0.5
		c0.2-0.1,0.4-0.4,0.5-0.4c0,0,0.1-0.1,0.1-0.1c0.1,0,0.1-0.1,0.2-0.1c0.4-0.2,0.8-0.4,1.1-0.6c0.1,0,0.1-0.1,0.1-0.1
		c0.1,0,0.2-0.1,0.4-0.2c1.9-0.8,3.2-1.1,5.2-1.4c1.7-0.3,3.2-0.6,4.8-1.3c0.9-0.4,2-1.4,1.6-2.5c0,0,0,0,0,0.1
		c-0.1-0.6-0.3-0.9-1-1c-7.4-1.6-17.9,2.4-22.1,8.7c-5.7,8.5,8.5,13.5,14.3,15.2c6,1.8,15.6,4.3,14.9,12.4c-0.1,1-0.4,2.1-0.8,3.1
		c0-0.1-0.5,1-0.4,1c-0.1,0.1-0.6,0.9-0.5,0.8c-0.2,0.2-0.3,0.4-0.5,0.5c0.1-0.1-0.1,0.1-0.4,0.3c-0.2,0.1-0.5,0.3-0.6,0.4
		c-0.3,0.1-0.6,0.2-0.9,0.3c-0.1,0-0.8,0.2-1,0.3c-0.4,0.1-0.7,0.2-1.1,0.2c-1,0.2-2.1,0.4-3.1,0.5c-2.6,0.4-5.2,0.8-7.7,1.6
		c-0.8,0.2-1.5,0.5-2.2,0.9c-0.5,0.3-1,0.5-1.5,0.9c-0.2,0.1-0.3,0.3-0.4,0.4c-0.7,0.4-2.8,2.3-1.6,3c0.1,0.4,0.3,0.7,0.6,0.9
		c0.4,0.3,0.8,0.4,1.3,0.6c0.9,0.4,2.3,0.4,3.2,0.3c2.5-0.1,5.1-0.3,7.5-0.9c5.6-1.1,10.7-3.4,15.1-7.2
		C246.2,317.8,247.4,312.9,247.1,308.1z"/>
</g>
</svg>
